<svg width="248" height="121" viewBox="0 0 1155 564" fill="none" xmlns="http://www.w3.org/2000/svg">
<line x1="721" y1="490" x2="832.774" y2="490" stroke="black" stroke-width="4"/>
<line x1="260" y1="490" x2="371.774" y2="490" stroke="black" stroke-width="4"/>
<path d="M430.917 503V499.688H435.429V478.04H430.917V474.728H443.637C447.509 474.728 450.213 475.448 451.749 476.888C453.285 478.328 454.053 480.456 454.053 483.272C454.053 485.448 453.605 487.224 452.709 488.6C451.845 489.976 450.341 490.936 448.197 491.48L452.949 499.688H457.317V503H450.165L444.117 491.96C443.957 491.96 443.797 491.96 443.637 491.96H439.269V499.688H442.293V503H430.917ZM439.317 488.552H443.637C445.013 488.552 446.165 488.424 447.093 488.168C448.021 487.912 448.725 487.416 449.205 486.68C449.717 485.912 449.973 484.792 449.973 483.32C449.973 481.848 449.717 480.744 449.205 480.008C448.725 479.24 448.021 478.728 447.093 478.472C446.165 478.184 445.013 478.04 443.637 478.04H439.317V488.552ZM479.096 500.552C477.816 501.64 476.504 502.44 475.16 502.952C473.848 503.464 472.344 503.72 470.648 503.72C467.256 503.72 464.552 502.76 462.536 500.84C460.552 498.888 459.56 496.168 459.56 492.68C459.56 490.472 459.992 488.552 460.855 486.92C461.72 485.256 462.936 483.976 464.504 483.08C466.104 482.152 467.944 481.688 470.023 481.688C472.936 481.688 475.208 482.6 476.84 484.424C478.504 486.248 479.336 488.68 479.336 491.72C479.336 492.008 479.32 492.312 479.288 492.632C479.288 492.92 479.272 493.224 479.24 493.544L463.256 493.64C463.352 495.272 463.736 496.6 464.408 497.624C465.112 498.648 465.992 499.4 467.048 499.88C468.136 500.36 469.288 500.6 470.504 500.6C473.224 500.6 475.512 499.832 477.368 498.296L479.096 500.552ZM475.64 490.616C475.608 488.824 475.08 487.384 474.056 486.296C473.064 485.176 471.736 484.616 470.072 484.616C468.376 484.616 466.888 485.176 465.608 486.296C464.328 487.384 463.56 488.84 463.304 490.664L475.64 490.616ZM498.018 501.608C495.938 503.016 493.682 503.72 491.25 503.72C485.81 503.72 483.058 501.592 482.994 497.336C482.93 493.144 485.586 491.048 490.962 491.048L497.154 491.096C497.154 486.872 495.538 484.76 492.306 484.76C490.738 484.76 489.298 484.952 487.986 485.336L487.506 487.976L484.434 487.4L485.202 483.032C487.698 482.136 490.018 481.688 492.162 481.688C497.986 481.688 500.898 484.76 500.898 490.904V499.256L505.458 500.744L504.498 503.816L498.018 501.608ZM491.106 494.072C488.258 494.072 486.834 495.144 486.834 497.288C486.834 499.528 488.37 500.648 491.442 500.648C493.65 500.648 495.554 500.04 497.154 498.824V494.12L491.106 494.072ZM507.588 503V500.024H511.62V475.832L506.82 474.776L507.636 471.704L515.364 473.48V500.024H519.396V503H507.588ZM534.371 474.728H555.683L558.131 482.12L555.011 483.176L553.091 478.04H542.819V486.728H551.795V490.04H542.819L542.771 499.688H554.051L555.971 494.552L559.091 495.608L556.643 503H534.323V499.688H538.931L538.979 478.04H534.371V474.728ZM575.839 485.432C575.135 485.144 574.463 484.92 573.823 484.76C573.183 484.6 572.351 484.52 571.327 484.52C570.111 484.52 569.007 484.792 568.015 485.336C567.055 485.88 566.575 486.648 566.575 487.64C566.575 488.6 566.975 489.352 567.775 489.896C568.607 490.408 569.759 490.744 571.231 490.904L573.199 491.096C575.823 491.352 577.663 492.008 578.719 493.064C579.775 494.088 580.303 495.448 580.303 497.144C580.303 499.096 579.503 500.68 577.903 501.896C576.303 503.112 574.223 503.72 571.663 503.72C570.095 503.72 568.559 503.512 567.055 503.096C565.583 502.68 564.303 502.168 563.215 501.56L562.399 496.712L565.711 495.896L566.431 499.256C567.167 499.672 567.967 499.992 568.831 500.216C569.727 500.44 570.623 500.552 571.519 500.552C572.927 500.552 574.159 500.28 575.215 499.736C576.303 499.16 576.847 498.328 576.847 497.24C576.847 496.28 576.527 495.608 575.887 495.224C575.247 494.808 574.127 494.504 572.527 494.312L570.415 494.072C568.047 493.816 566.239 493.128 564.991 492.008C563.743 490.888 563.119 489.512 563.119 487.88C563.119 486.472 563.519 485.304 564.319 484.376C565.119 483.448 566.143 482.76 567.391 482.312C568.671 481.864 569.999 481.64 571.375 481.64C572.879 481.64 574.223 481.784 575.407 482.072C576.591 482.36 577.727 482.776 578.815 483.32L579.679 487.88L576.655 488.552L575.839 485.432ZM594.184 503.72C593.032 503.72 591.928 503.496 590.872 503.048C589.848 502.6 589.016 501.8 588.376 500.648C587.736 499.496 587.416 497.896 587.416 495.848V485.384H583.432V482.408H587.416V477.752L591.064 476.888V482.408H597.064V485.384H591.064V493.736C591.064 495.88 591.272 497.608 591.688 498.92C592.104 500.232 593.016 500.888 594.424 500.888C595.416 500.888 596.536 500.6 597.784 500.024L598.504 502.712C597.832 502.968 597.128 503.192 596.392 503.384C595.656 503.608 594.92 503.72 594.184 503.72ZM616.518 501.608C614.438 503.016 612.182 503.72 609.75 503.72C604.31 503.72 601.558 501.592 601.494 497.336C601.43 493.144 604.086 491.048 609.462 491.048L615.654 491.096C615.654 486.872 614.038 484.76 610.806 484.76C609.238 484.76 607.798 484.952 606.486 485.336L606.006 487.976L602.934 487.4L603.702 483.032C606.198 482.136 608.518 481.688 610.662 481.688C616.486 481.688 619.398 484.76 619.398 490.904V499.256L623.958 500.744L622.998 503.816L616.518 501.608ZM609.606 494.072C606.758 494.072 605.334 495.144 605.334 497.288C605.334 499.528 606.87 500.648 609.942 500.648C612.15 500.648 614.054 500.04 615.654 498.824V494.12L609.606 494.072ZM635.903 503.72C634.751 503.72 633.647 503.496 632.591 503.048C631.567 502.6 630.735 501.8 630.095 500.648C629.455 499.496 629.135 497.896 629.135 495.848V485.384H625.151V482.408H629.135V477.752L632.783 476.888V482.408H638.783V485.384H632.783V493.736C632.783 495.88 632.991 497.608 633.407 498.92C633.823 500.232 634.735 500.888 636.143 500.888C637.135 500.888 638.255 500.6 639.503 500.024L640.223 502.712C639.551 502.968 638.847 503.192 638.111 503.384C637.375 503.608 636.639 503.72 635.903 503.72ZM660.689 500.552C659.409 501.64 658.097 502.44 656.753 502.952C655.441 503.464 653.937 503.72 652.241 503.72C648.849 503.72 646.145 502.76 644.129 500.84C642.145 498.888 641.153 496.168 641.153 492.68C641.153 490.472 641.585 488.552 642.449 486.92C643.313 485.256 644.529 483.976 646.097 483.08C647.697 482.152 649.537 481.688 651.617 481.688C654.529 481.688 656.801 482.6 658.433 484.424C660.097 486.248 660.929 488.68 660.929 491.72C660.929 492.008 660.913 492.312 660.881 492.632C660.881 492.92 660.865 493.224 660.833 493.544L644.849 493.64C644.945 495.272 645.329 496.6 646.001 497.624C646.705 498.648 647.585 499.4 648.641 499.88C649.729 500.36 650.881 500.6 652.097 500.6C654.817 500.6 657.105 499.832 658.961 498.296L660.689 500.552ZM657.233 490.616C657.201 488.824 656.673 487.384 655.649 486.296C654.657 485.176 653.329 484.616 651.665 484.616C649.969 484.616 648.481 485.176 647.201 486.296C645.921 487.384 645.153 488.84 644.897 490.664L657.233 490.616Z" fill="black"/>
<path d="M189.519 350.456H219.759V361.208H210.255V396.248H224.463L227.823 386.84L237.999 390.392L232.239 407H189.519V396.248H198.063V361.208H189.519V350.456ZM266.744 361.496C274.168 361.496 279.896 363.608 283.928 367.832C287.96 371.992 289.976 377.816 289.976 385.304C289.976 392.728 287.96 398.52 283.928 402.68C279.896 406.84 274.168 408.92 266.744 408.92C259.384 408.92 253.72 406.84 249.752 402.68C245.848 398.52 243.896 392.728 243.896 385.304C243.896 377.816 245.848 371.992 249.752 367.832C253.72 363.608 259.384 361.496 266.744 361.496ZM266.84 371.384C259.48 371.384 255.8 376.024 255.8 385.304C255.8 394.584 259.48 399.224 266.84 399.224C274.328 399.224 278.072 394.584 278.072 385.304C278.072 376.024 274.328 371.384 266.84 371.384ZM291.714 363.416H316.29V373.112H310.818L316.674 387.224L320.13 396.44L323.682 387.224L329.634 373.112H324.066V363.416H348.45V373.112H342.402L326.85 407H313.602L298.53 373.112H291.81L291.714 363.416ZM392.542 401.624C389.598 404.12 386.526 405.944 383.326 407.096C380.19 408.312 377.086 408.92 374.014 408.92C369.022 408.92 364.67 407.928 360.958 405.944C357.246 403.896 354.366 401.112 352.318 397.592C350.334 394.008 349.342 389.944 349.342 385.4C349.342 380.6 350.302 376.408 352.222 372.824C354.142 369.24 356.798 366.456 360.19 364.472C363.582 362.488 367.518 361.496 371.998 361.496C376.67 361.496 380.702 362.424 384.094 364.28C387.55 366.136 390.206 368.728 392.062 372.056C393.982 375.32 394.942 379.192 394.942 383.672C394.942 384.504 394.878 385.464 394.75 386.552C394.686 387.64 394.558 388.664 394.366 389.624H360.958C361.278 392.952 362.686 395.416 365.182 397.016C367.742 398.616 370.686 399.416 374.014 399.416C376.702 399.416 379.294 398.968 381.79 398.072C384.286 397.176 386.558 395.928 388.606 394.328L392.542 401.624ZM382.846 381.56C382.846 378.552 381.918 376.12 380.062 374.264C378.206 372.344 375.646 371.384 372.382 371.384C369.438 371.384 366.878 372.344 364.702 374.264C362.526 376.12 361.374 378.552 361.246 381.56H382.846ZM423.8 407V396.248H431.576V361.208H423.8V350.456H449.24C456.856 350.456 462.68 351.8 466.712 354.488C470.744 357.112 472.76 360.888 472.76 365.816C472.76 371.64 470.232 375.8 465.176 378.296C471.384 380.088 474.488 384.472 474.488 391.448C474.488 396.44 472.824 400.28 469.496 402.968C466.232 405.656 461.464 407 455.192 407H423.8ZM443.96 373.88H453.656C457.816 373.88 459.896 371.8 459.896 367.64C459.896 363.352 456.696 361.208 450.296 361.208H443.96V373.88ZM443.96 396.248H452.984C458.808 396.248 461.72 394.104 461.72 389.816C461.72 385.656 459 383.576 453.56 383.576H443.96V396.248ZM524.355 401.624C521.411 404.12 518.339 405.944 515.139 407.096C512.003 408.312 508.899 408.92 505.827 408.92C500.835 408.92 496.483 407.928 492.771 405.944C489.059 403.896 486.179 401.112 484.131 397.592C482.147 394.008 481.155 389.944 481.155 385.4C481.155 380.6 482.115 376.408 484.035 372.824C485.955 369.24 488.611 366.456 492.003 364.472C495.395 362.488 499.331 361.496 503.811 361.496C508.483 361.496 512.515 362.424 515.907 364.28C519.363 366.136 522.019 368.728 523.875 372.056C525.795 375.32 526.755 379.192 526.755 383.672C526.755 384.504 526.691 385.464 526.563 386.552C526.499 387.64 526.371 388.664 526.179 389.624H492.771C493.091 392.952 494.499 395.416 496.995 397.016C499.555 398.616 502.499 399.416 505.827 399.416C508.515 399.416 511.107 398.968 513.603 398.072C516.099 397.176 518.371 395.928 520.419 394.328L524.355 401.624ZM514.659 381.56C514.659 378.552 513.731 376.12 511.875 374.264C510.019 372.344 507.459 371.384 504.195 371.384C501.251 371.384 498.691 372.344 496.515 374.264C494.339 376.12 493.187 378.552 493.059 381.56H514.659ZM533.016 363.416H553.176V397.304H561.144V407H533.016V397.304H540.984V373.112H533.016V363.416ZM546.072 342.488C548.12 342.488 549.784 343.128 551.064 344.408C552.344 345.688 552.984 347.352 552.984 349.4C552.984 351.448 552.344 353.112 551.064 354.392C549.784 355.608 548.12 356.216 546.072 356.216C544.024 356.216 542.36 355.608 541.08 354.392C539.864 353.112 539.256 351.448 539.256 349.4C539.256 347.352 539.864 345.688 541.08 344.408C542.36 343.128 544.024 342.488 546.072 342.488ZM567.994 407V397.304H576.154V375.512L566.938 372.344L570.106 362.552L583.642 367.16C586.202 365.432 588.762 364.056 591.322 363.032C593.882 362.008 597.146 361.496 601.114 361.496C605.338 361.496 608.666 362.328 611.098 363.992C613.53 365.656 615.258 367.896 616.282 370.712C617.37 373.528 617.914 376.632 617.914 380.024V397.304H625.882V407H601.882V397.304H605.818V381.464C605.818 378.776 605.274 376.568 604.186 374.84C603.098 373.112 601.05 372.248 598.042 372.248C596.122 372.248 594.266 372.6 592.474 373.304C590.746 373.944 589.338 374.68 588.25 375.512V397.304H592.09V407H567.994ZM652.551 396.056C651.975 396.056 651.431 396.056 650.919 396.056V401.24H658.407C664.295 401.24 668.711 402.52 671.655 405.08C674.599 407.576 676.071 411.064 676.071 415.544C676.071 419.256 674.983 422.232 672.807 424.472C670.695 426.712 667.911 428.312 664.455 429.272C660.999 430.296 657.287 430.808 653.319 430.808C647.303 430.808 642.439 430.168 638.727 428.888C635.079 427.672 632.423 426.616 630.759 425.72L635.079 416.12C638.343 417.464 641.351 418.488 644.103 419.192C646.919 419.96 649.991 420.344 653.319 420.344C656.263 420.344 658.535 420.088 660.135 419.576C661.735 419.064 662.823 418.424 663.399 417.656C664.039 416.888 664.359 416.152 664.359 415.448C664.359 414.36 663.943 413.4 663.111 412.568C662.343 411.8 660.423 411.416 657.351 411.416H641.703V394.424C638.375 393.208 635.815 391.384 634.023 388.952C632.231 386.52 631.335 383.48 631.335 379.832C631.335 374.136 633.287 369.656 637.191 366.392C641.095 363.128 646.247 361.496 652.647 361.496C655.079 361.496 657.223 361.688 659.079 362.072C660.935 362.392 662.759 363.032 664.551 363.992L679.335 358.904L683.079 369.656L671.271 371.192C672.359 372.344 673.095 373.688 673.479 375.224C673.863 376.76 674.055 378.104 674.055 379.256C674.055 383.416 673.031 386.744 670.983 389.24C668.999 391.672 666.375 393.432 663.111 394.52C659.847 395.544 656.327 396.056 652.551 396.056ZM652.743 387.224C655.943 387.224 658.407 386.488 660.135 385.016C661.927 383.48 662.823 381.496 662.823 379.064C662.823 376.248 661.927 374.136 660.135 372.728C658.407 371.256 655.943 370.52 652.743 370.52C649.607 370.52 647.143 371.256 645.351 372.728C643.559 374.136 642.663 376.248 642.663 379.064C642.663 381.496 643.559 383.48 645.351 385.016C647.143 386.488 649.607 387.224 652.743 387.224ZM711.425 350.456L736.865 350.552V361.208H731.585V373.112H754.529V361.208H749.249V350.456H774.689V361.208H766.913V396.248H774.689V407H749.441V396.248H754.529V383.864H731.585V396.248H736.673V407H711.425V396.248H719.201V361.208H711.425V350.456ZM804.963 361.496C812.387 361.496 818.115 363.608 822.147 367.832C826.179 371.992 828.195 377.816 828.195 385.304C828.195 392.728 826.179 398.52 822.147 402.68C818.115 406.84 812.387 408.92 804.963 408.92C797.603 408.92 791.939 406.84 787.971 402.68C784.067 398.52 782.115 392.728 782.115 385.304C782.115 377.816 784.067 371.992 787.971 367.832C791.939 363.608 797.603 361.496 804.963 361.496ZM805.059 371.384C797.699 371.384 794.019 376.024 794.019 385.304C794.019 394.584 797.699 399.224 805.059 399.224C812.547 399.224 816.291 394.584 816.291 385.304C816.291 376.024 812.547 371.384 805.059 371.384ZM834.9 407V397.208H842.868V375.032L833.748 372.248L836.916 362.456L850.932 366.872C852.98 365.08 855.252 363.736 857.748 362.84C860.308 361.944 862.868 361.496 865.428 361.496C867.86 361.496 870.196 361.976 872.436 362.936C874.676 363.832 876.532 365.208 878.004 367.064C880.052 365.464 882.292 364.152 884.724 363.128C887.156 362.04 889.748 361.496 892.5 361.496C898.58 361.496 902.996 363 905.748 366.008C908.5 369.016 909.876 374.04 909.876 381.08V397.208H918.036V407H894.132V397.208H897.684V381.368C897.684 377.976 897.14 375.576 896.052 374.168C895.028 372.76 893.204 372.056 890.58 372.056C889.364 372.056 887.988 372.376 886.452 373.016C884.916 373.592 883.604 374.328 882.516 375.224V397.208H886.068V407H866.58V397.208H870.324V381.368C870.324 377.976 869.78 375.576 868.692 374.168C867.668 372.76 865.844 372.056 863.22 372.056C862.004 372.056 860.628 372.376 859.092 373.016C857.62 373.592 856.276 374.328 855.06 375.224V397.208H858.9V407H834.9ZM964.98 401.624C962.036 404.12 958.964 405.944 955.764 407.096C952.628 408.312 949.524 408.92 946.452 408.92C941.46 408.92 937.108 407.928 933.396 405.944C929.684 403.896 926.804 401.112 924.756 397.592C922.772 394.008 921.78 389.944 921.78 385.4C921.78 380.6 922.74 376.408 924.66 372.824C926.58 369.24 929.236 366.456 932.628 364.472C936.02 362.488 939.956 361.496 944.436 361.496C949.108 361.496 953.14 362.424 956.532 364.28C959.988 366.136 962.644 368.728 964.5 372.056C966.42 375.32 967.38 379.192 967.38 383.672C967.38 384.504 967.316 385.464 967.188 386.552C967.124 387.64 966.996 388.664 966.804 389.624H933.396C933.716 392.952 935.124 395.416 937.62 397.016C940.18 398.616 943.124 399.416 946.452 399.416C949.14 399.416 951.732 398.968 954.228 398.072C956.724 397.176 958.996 395.928 961.044 394.328L964.98 401.624ZM955.284 381.56C955.284 378.552 954.356 376.12 952.5 374.264C950.644 372.344 948.084 371.384 944.82 371.384C941.876 371.384 939.316 372.344 937.14 374.264C934.964 376.12 933.812 378.552 933.684 381.56H955.284Z" fill="black"/>
<path d="M608.044 192.531C606.013 227.833 579.171 250.721 545.864 268.804C512.558 250.721 485.708 227.833 483.701 192.531C482.083 164.468 519.662 149.094 545.864 178.476C571.104 148.819 609.654 164.468 608.044 192.531ZM688.438 113.753L556.853 3.97503C550.501 -1.32501 541.074 -1.32501 534.714 3.97503L401.761 114.899C396.38 119.382 394.462 126.622 396.93 133.045C399.406 139.475 405.742 143.747 412.823 143.747H434.785V276.829C434.785 289.808 445.612 300 459.425 300H632.32C646.133 300 656.944 289.808 656.944 276.829V143.747H678.906C688.277 143.747 695.867 136.398 695.867 127.329C695.867 121.683 692.921 116.705 688.438 113.753Z" fill="#BA2C42"/>
</svg>
