<svg width="200" height="300" viewBox="0 0 348 500" fill="none" xmlns="http://www.w3.org/2000/svg">
<path d="M300.953 263.274C302.181 255.265 300.608 246.913 297.03 242.489L293.302 245.503C295.565 248.286 297.418 254.788 296.233 262.549C295.651 266.42 294.164 271.32 290.673 275.916C293.28 267.754 294.487 256.219 286.061 246.569L282.461 249.734C294.573 263.579 282.052 283.487 281.923 283.677L282.073 283.772C281.621 285.05 281.836 286.538 282.763 287.643C290.716 297.14 310.586 325.265 307.073 341.283C306.858 342.237 306.427 342.77 305.479 343.189C294.358 348.204 251.32 328.334 226.816 314.645C224.898 313.557 222.462 314.263 221.385 316.17C220.436 317.905 220.867 320.021 222.354 321.223C222.527 321.357 222.721 321.489 222.936 321.605C234.1 327.84 290.716 358.577 308.733 350.473C311.987 349.005 314.099 346.432 314.853 342.999C318.646 325.761 303 301.41 294.293 289.53C300.069 290.085 306.858 289.264 312.375 286.613L310.306 282.285C304.789 284.955 298.259 285.335 293.41 284.631C310.716 277.214 318.215 256.599 318.56 255.589L314.056 253.987C314.013 254.14 310.672 263.311 303.582 271.186C310.414 260.071 310.306 248.439 310.284 248.247L305.521 248.344C305.521 248.495 305.608 258.583 299.767 268.326C300.285 266.687 300.694 265.01 300.953 263.274" fill="#303030"/>
<path d="M97.1151 327.172C97.3374 327.057 97.4992 326.925 97.681 326.771C99.1157 325.551 99.5197 323.415 98.5296 321.719C97.398 319.812 94.9733 319.183 93.094 320.308C68.9061 334.57 26.3904 355.451 15.1553 350.703C14.2056 350.302 13.7409 349.768 13.5186 348.834C9.63885 332.911 28.8152 304.291 36.5343 294.604C37.4437 293.478 37.6053 291.991 37.1406 290.713L37.282 290.618C37.1406 290.428 24.1475 270.844 35.9485 256.675L32.2909 253.607C24.0868 263.446 25.562 274.963 28.3708 283.068C24.7739 278.548 23.1573 273.686 22.4904 269.814C21.1163 262.092 22.8339 255.534 25.0163 252.71L21.2174 249.773C17.762 254.275 16.3677 262.665 17.7822 270.654C18.1055 272.484 18.5905 274.257 19.1967 275.974C13.074 266.497 12.8719 256.467 12.8719 255.819L8.08283 255.858C8.08283 256.028 8.28494 267.622 15.2968 278.587C8.06266 270.863 4.5263 261.825 4.46568 261.673L0 263.389C0.383934 264.381 8.36581 284.841 25.8449 291.857C21.0154 292.658 14.4885 292.43 8.89111 289.894L6.93098 294.26C12.5081 296.796 19.2978 297.444 25.0568 296.778C16.6304 308.848 1.59628 333.56 5.77914 350.721C6.62784 354.134 8.79011 356.67 12.0637 358.044C30.25 365.746 86.1224 333.674 97.1151 327.172" fill="#303030"/>
<path d="M150.905 500C93.9981 500 47.8384 492.314 47.8384 482.837C47.8384 473.38 93.9981 465.696 150.905 465.696C207.853 465.696 254.013 473.38 254.013 482.837C254.013 492.314 207.853 500 150.905 500Z" fill="#CFE1EC"/>
<path d="M203.534 454.11C202.191 448.561 204.856 425.889 214.046 410.882L207.269 406.706C196.862 423.659 193.945 448.257 195.792 455.979C197.009 461.031 203.66 470.605 208.654 477.278C206.996 477.03 205.381 476.839 204.038 476.782C198.184 476.515 194.805 484.372 196.946 484.372C199.065 484.372 220.446 484.372 221.768 484.372C225.902 484.372 205.423 461.967 203.534 454.11Z" fill="#303030"/>
<path d="M106.16 408.519L98.9165 411.837C104.756 424.689 113.667 447.627 112.711 454.494C111.511 463.149 85.7526 484.372 91.0426 484.372C91.5715 484.372 94.9693 484.372 99.2419 484.372L99.2624 484.41L99.3029 484.372C106.994 484.372 117.492 484.372 119.038 484.372C121.439 484.372 117.614 476.517 111.043 476.784C109.639 476.841 108.072 476.955 106.444 477.09C112.406 470.643 119.751 461.643 120.585 455.598C122.172 444.195 107.808 412.142 106.16 408.519Z" fill="#303030"/>
<path d="M344.349 36.3684C343.589 38.5691 342.697 40.7284 341.654 42.8225L341.676 42.3372C341.676 36.4554 339.851 30.5366 336.135 25.9914C335.743 24.6832 335.287 23.3792 334.787 22.084C337.221 22.4149 339.764 23.3464 341.676 24.7636C343.697 26.2438 345.045 28.1573 345.327 30.4495C345.371 30.7564 345.371 31.0677 345.371 31.3833C345.392 32.9659 344.914 34.6639 344.349 36.3684ZM288.847 78.9972C285.174 78.0177 281.502 75.9866 278.829 73.3134C276.134 70.6294 274.439 67.3685 274.439 63.8442C274.439 63.5373 274.46 63.2283 274.482 62.9148C274.613 61.2757 275.134 59.7366 275.873 58.2563C276.981 59.1837 278.22 59.9564 279.415 60.616C281.675 61.8633 284.066 62.8843 286.5 63.7071C287.847 65.2222 289.412 66.5674 291.172 67.682C292.259 68.3655 293.432 68.9142 294.606 69.3539C296.887 70.9865 299.408 72.3273 302.038 73.296C302.299 75.2748 302.668 77.3732 303.124 79.5457C301.125 79.8853 299.126 80.0638 297.127 80.0616C294.345 80.0616 291.585 79.7221 288.847 78.9972V78.9972ZM274.569 51.7216V51.7171C274.526 51.4146 274.504 51.112 274.504 50.8073C274.504 49.3728 275.091 47.9186 276.09 46.656C276.829 45.7439 277.764 44.9537 278.785 44.3637C279.176 45.8549 279.633 47.3352 280.132 48.8024C278.503 50.3284 276.894 51.974 275.525 53.796L275.46 53.9048C275.026 53.2213 274.721 52.4987 274.569 51.7216V51.7216ZM287.869 12.8433C292.671 6.61756 300.604 2.61219 308.318 2.61219C310.774 2.61219 313.229 3.02575 315.533 3.87471C320.423 5.68148 324.313 9.14281 327.399 13.5182C328.659 15.3032 329.724 17.2624 330.702 19.2868C329.659 19.3304 328.637 19.4282 327.616 19.5806C325.334 18.5597 322.922 17.8283 320.531 17.3494C318.141 16.8705 315.685 16.6311 313.23 16.6311C306.036 16.6311 298.8 18.6773 292.889 22.6261L292.845 22.6303C290.107 22.9459 287.26 23.6927 284.74 25.0314C283.675 25.6017 282.697 26.3114 281.784 27.119C282.697 21.9163 284.674 16.9793 287.869 12.8433V12.8433ZM331.854 21.8793L331.94 22.047L331.68 21.8771L331.788 21.875L331.854 21.8793ZM334.092 28.3315C335.417 33.1488 336.243 38.1512 336.243 43.0795C336.243 46.434 335.852 49.7536 334.983 52.9709V52.9754C332.875 55.433 330.528 57.6338 327.92 59.4993C328.137 58.5415 328.268 57.5662 328.268 56.5888C328.268 55.3807 328.072 54.1769 327.659 53.0254C328.55 51.1903 329.094 49.19 329.094 47.0501C329.094 46.519 329.05 45.9791 328.985 45.4371C328.594 42.1827 327.007 39.3223 325.204 36.8494C322.291 32.8724 318.532 29.5919 314.294 27.1713C318.467 24.9052 322.791 23.0745 327.203 22.2908C328.963 23.1485 330.615 24.1912 332.071 25.4734C332.658 25.9958 333.201 26.5552 333.722 27.1451C333.831 27.5413 333.983 27.9353 334.092 28.3315V28.3315ZM338.721 46.5537C338.786 45.3957 338.873 44.2398 338.873 43.0795C338.873 40.9397 338.677 38.8041 338.395 36.6817C338.829 38.5277 339.068 40.4281 339.068 42.3372C339.068 43.7521 338.938 45.1671 338.721 46.5537V46.5537ZM312.013 75.1159C313.599 75.1159 315.207 74.957 316.772 74.6544C313.251 76.6027 309.535 78.0916 305.71 79.0081C305.341 77.3297 305.058 75.7058 304.819 74.1559C307.166 74.7698 309.579 75.1137 312.013 75.1159V75.1159ZM280.719 51.8608C281.306 54.6581 282.284 57.355 283.696 59.8018C282.675 59.3425 281.654 58.8594 280.676 58.3173C279.437 57.6447 278.242 56.8502 277.242 55.9577C277.373 55.7618 277.481 55.5593 277.633 55.3678C278.546 54.1444 279.611 52.9797 280.719 51.8608V51.8608ZM284.457 31.0285C283.088 33.1139 282.066 35.3952 281.349 37.768C281.241 36.4924 281.154 35.2058 281.154 33.9237C281.154 33.2859 281.197 32.6503 281.219 32.0168C282.219 30.0054 283.87 28.4685 285.978 27.3475C286.695 26.9557 287.499 26.6378 288.325 26.3505C286.891 27.7632 285.587 29.3175 284.457 31.0285V31.0285ZM298.496 22.4779C303.037 20.362 308.123 19.254 313.23 19.2562C315.511 19.2562 317.793 19.4783 319.988 19.9267C320.966 20.1226 321.944 20.3643 322.878 20.6408C318.902 21.8271 315.077 23.6644 311.469 25.7389C307.406 23.8646 302.972 22.7304 298.496 22.4779V22.4779ZM306.645 28.6906L306.623 28.7059C306.341 28.6798 306.036 28.6601 305.732 28.6623C302.32 28.6666 299.343 30.4255 296.974 32.8091C295.301 34.4483 293.91 36.4097 292.758 38.4298C291.911 39.085 291.042 39.7554 290.194 40.428C288.803 40.28 287.369 40.1583 285.935 40.1583C285.087 40.1583 284.24 40.2147 283.392 40.3083C284.022 37.5111 285.109 34.8358 286.652 32.4696C288.543 29.5831 290.998 27.1517 293.801 25.1817C294.736 25.0968 295.67 25.0423 296.605 25.0423C300.712 25.0401 304.819 25.8738 308.688 27.4019C307.992 27.8264 307.297 28.2574 306.645 28.6906ZM325.986 50.1281C325.291 49.351 324.421 48.6739 323.378 48.0644C323.052 46.558 322.444 45.2477 321.596 44.229C320.184 42.5463 318.163 41.6602 316.055 41.6667C315.077 41.6711 314.055 41.8714 313.077 42.2284C312.686 41.8496 312.295 41.5034 311.839 41.2139C310.796 40.55 309.579 40.1669 308.253 40.1691C306.514 40.1713 304.646 40.8288 302.646 42.1066C299.582 41.6015 296.692 41.2139 294.388 40.9178C294.519 40.6784 294.627 40.4412 294.758 40.204C299.082 36.9409 303.494 33.8258 308.036 30.898C309.209 30.147 310.383 29.4134 311.578 28.7016C316.12 31.0025 320.119 34.3091 323.096 38.3994C324.747 40.6763 326.073 43.1731 326.399 45.757C326.442 46.1924 326.464 46.6278 326.464 47.0501C326.464 48.1081 326.29 49.1311 325.986 50.1281V50.1281ZM306.927 71.511C307.166 71.5153 307.427 71.5154 307.688 71.5154C313.056 71.5111 318.815 70.599 323.226 67.0181C324.334 66.106 325.312 65.0066 326.073 63.7919C328.398 62.475 330.55 60.9361 332.549 59.1968C329.724 64.5039 325.356 68.9249 319.923 71.0386C317.38 72.0291 314.707 72.4929 312.013 72.4929C309.557 72.4951 307.101 72.1031 304.689 71.4C305.45 71.4566 306.189 71.4979 306.927 71.511V71.511ZM283.023 46.2685C282.936 45.9898 282.849 45.707 282.784 45.4262C282.805 44.6121 282.849 43.8021 282.936 42.9945C283.914 42.8465 284.913 42.7834 285.935 42.7834C286.348 42.7834 286.739 42.8183 287.152 42.8357C285.761 43.9655 284.392 45.106 283.023 46.2685ZM294.953 49.6513C293.041 52.1024 291.867 55.1718 291.607 58.2651C291.042 56.8 290.781 55.2327 290.781 53.5783C290.781 50.2847 291.824 46.704 293.215 43.4148C295.04 43.6433 297.3 43.9394 299.778 44.3117C298.256 45.7005 296.648 47.4548 294.953 49.6513V49.6513ZM307.949 45.7483C307.362 46.3926 306.797 47.0913 306.232 47.8837C303.776 51.4972 302.016 56.6628 301.647 63.4197C301.386 63.4262 301.103 63.4416 300.843 63.4416C299.691 63.4416 298.495 63.3763 297.322 63.2783C296.366 62.8495 295.41 62.3574 294.519 61.8132C294.323 61.0383 294.193 60.2373 294.193 59.397C294.193 56.5693 295.257 53.5261 296.996 51.2622C299.321 48.2712 301.429 46.2033 303.233 44.8667C304.798 45.1301 306.362 45.4261 307.949 45.7483ZM310.426 43.5889C309.361 43.3494 308.275 43.1274 307.188 42.9163C307.558 42.8379 307.927 42.7921 308.253 42.7943C309.1 42.7943 309.796 43.0141 310.426 43.419L310.535 43.5128L310.426 43.5889ZM319.858 46.3535C318.293 45.7287 316.555 45.1672 314.729 44.6556L314.62 44.4836C315.12 44.3639 315.598 44.2876 316.055 44.2898C317.489 44.3006 318.662 44.8276 319.575 45.916L319.879 46.3622L319.858 46.3535ZM311.708 65.5836C310.861 65.6532 310.013 65.712 309.166 65.712C308.927 65.712 308.666 65.6815 308.405 65.675C308.666 65.5509 308.927 65.4181 309.166 65.2766C309.97 65.1221 310.774 64.9502 311.578 64.7477C312.578 64.4995 313.555 64.1839 314.533 63.8226L314.425 63.9182C313.555 64.5386 312.643 65.0938 311.708 65.5836ZM312.36 68.1741C314.186 68.0043 315.989 67.656 317.75 67.1966C315.707 68.026 313.469 68.5091 311.165 68.7268C311.578 68.557 311.969 68.3657 312.36 68.1741ZM300.43 67.1486C300.821 67.2574 301.212 67.3445 301.603 67.4381C301.625 67.621 301.625 67.8039 301.625 67.9889C301.19 67.9846 300.777 67.941 300.343 67.9084C299.43 67.6036 298.626 67.214 297.887 66.7264C298.713 66.9376 299.582 67.0811 300.43 67.1486V67.1486ZM288.173 53.5783C288.151 54.6384 288.282 55.6921 288.477 56.737C286.543 54.4296 285.065 51.765 283.935 48.9134C286.022 47.1219 288.151 45.3783 290.281 43.6673C289.064 46.8085 288.173 50.2042 288.173 53.5783ZM311.013 46.423C311.643 46.571 312.252 46.7214 312.838 46.8781C313.338 48.2539 313.621 49.8842 313.621 51.5843C313.621 55.0389 312.512 58.707 310.383 61.0188C309.753 61.7089 309.014 62.2878 308.231 62.782C306.927 63.0171 305.602 63.1803 304.276 63.2892C304.646 57.0548 306.319 52.4508 308.405 49.3575C309.231 48.145 310.122 47.1849 311.013 46.423V46.423ZM321.162 51.2318C321.162 51.8827 321.118 52.5835 321.009 53.3323C320.77 55.1696 320.162 56.872 319.314 58.4328C317.489 59.6823 315.446 60.703 313.382 61.4519C315.338 58.6067 316.228 55.0084 316.228 51.5843C316.228 50.2542 316.076 48.957 315.816 47.7227C316.902 48.0623 317.945 48.4128 318.901 48.7916C319.684 49.1007 320.401 49.4293 321.075 49.7667C321.118 50.2282 321.162 50.7028 321.162 51.2318V51.2318ZM324.313 52.2156C324.465 52.4333 324.595 52.6683 324.747 52.8991C324.334 53.5347 323.9 54.1487 323.4 54.743C323.487 54.3882 323.552 54.0356 323.617 53.672C323.704 52.9406 323.748 52.2505 323.748 51.58C323.987 51.7933 324.16 52.0067 324.313 52.2156V52.2156ZM325.66 56.5888C325.66 58.3521 325.117 60.2112 324.182 61.8547C323.313 62.3314 322.422 62.7841 321.509 63.1846C320.314 63.7005 319.075 64.1098 317.837 64.469C319.184 63.2195 320.358 61.798 321.314 60.2176C322.053 59.6799 322.77 59.1139 323.443 58.5044C324.247 57.7839 324.964 57.0025 325.638 56.1796L325.66 56.5888ZM348 31.3833C348 30.9697 347.978 30.5497 347.913 30.1295C347.544 26.9601 345.653 24.4175 343.219 22.6477C340.785 20.8693 337.786 19.783 334.852 19.4303C334.44 19.3846 334.048 19.3542 333.657 19.3259C332.505 16.7616 331.136 14.2801 329.528 11.9945C326.247 7.31427 321.922 3.46116 316.468 1.41494C313.816 0.435362 311.056 -3.92424e-06 308.318 -3.92424e-06C299.713 -3.92424e-06 291.129 4.37555 285.804 11.2326C281.306 17.0229 279.046 24.1629 278.633 31.4227C277.894 33.1707 277.611 35.0079 277.611 36.8277C277.611 38.4952 277.829 40.1517 278.155 41.7473C276.568 42.5288 275.156 43.641 274.048 45.0168C272.744 46.6472 271.896 48.6522 271.874 50.8073C271.874 51.2579 271.918 51.7171 272.005 52.1808C272.266 53.7546 273.004 55.1151 273.939 56.2819C272.852 58.2323 272.07 60.3634 271.874 62.6948C271.831 63.0779 271.831 63.4611 271.831 63.8442C271.831 68.2393 273.939 72.1445 276.981 75.1725C280.045 78.2113 284.066 80.4295 288.173 81.5331C291.129 82.3189 294.128 82.687 297.127 82.687C299.321 82.6848 301.538 82.4823 303.711 82.1079C304.972 87.2627 307.34 91.786 309.318 96.0177C311.339 100.278 312.925 104.224 312.925 108.154C312.925 110.346 312.447 112.577 311.209 114.961C309.513 118.298 306.667 121.443 304.189 125.048C301.712 128.633 299.582 132.789 299.582 138.033C299.582 141.466 300.473 145.299 302.625 149.685L304.972 148.54C302.951 144.422 302.19 140.989 302.19 138.033C302.19 133.514 303.994 129.968 306.341 126.535C308.688 123.104 311.6 119.919 313.555 116.162C314.946 113.435 315.533 110.746 315.533 108.154C315.533 103.502 313.708 99.2286 311.708 94.8989C309.687 90.6345 307.449 86.3003 306.275 81.5701C314.555 79.5957 322.335 75.1224 328.529 69.2514C334.092 63.9596 338.699 57.329 340.676 49.795C343.262 45.8854 345.305 41.6145 346.826 37.2129C347.435 35.4214 348 33.4666 348 31.3833" fill="#DF3B28"/>
<path d="M210.326 361.049H96.7415V419.247H112.449C117.148 438.924 134.819 453.549 155.894 453.549C176.969 453.549 194.64 438.924 199.339 419.247H210.326V361.049" fill="#303030"/>
<path d="M142.25 374.734H107.515C102.198 374.734 97.8463 370.387 97.8463 365.046V360.604C97.8463 355.245 102.198 350.917 107.515 350.917H142.25C147.587 350.917 151.898 355.245 151.898 360.604V365.046C151.898 370.387 147.587 374.734 142.25 374.734Z" fill="#707070"/>
<path d="M144.208 399.729H109.494C104.153 399.729 99.8397 395.381 99.8397 390.044V385.6C99.8397 380.242 104.153 375.913 109.494 375.913H144.208C149.549 375.913 153.883 380.242 153.883 385.6V390.044C153.883 395.381 149.549 399.729 144.208 399.729Z" fill="#707070"/>
<path d="M136.056 426.441H124.711C118.155 426.441 112.112 422.894 108.927 417.154C104.898 409.889 110.139 400.947 118.443 400.947H142.325C150.607 400.947 155.869 409.889 151.841 417.154C148.655 422.894 142.612 426.441 136.056 426.441Z" fill="#707070"/>
<path d="M293.576 177.944C293.576 2.02281 19.7058 1.37979 19.7058 177.944C19.7058 267.145 68.5356 262.702 88.5852 336.724C91.7521 348.472 100.654 353.162 100.654 353.162H156.651H212.606C212.606 353.162 221.529 348.472 224.696 336.724C244.51 263.54 293.576 266.479 293.576 177.944Z" fill="#FFD203"/>
<path d="M148.864 66.5924C156.49 78.6796 135.05 91.8786 110.32 107.508C85.59 123.137 66.9656 135.286 59.339 123.219C51.6919 111.132 65.5265 88.6665 90.2563 73.0375C114.986 57.4086 141.217 54.5052 148.864 66.5924Z" fill="white"/>
<path d="M57.0772 136.867C65.9776 140.353 65.2976 150.33 61.1174 161.23C56.9772 172.109 50.937 179.802 42.0166 176.316C33.0963 172.83 29.2561 161.169 33.4163 150.29C37.5565 139.371 48.1569 133.38 57.0772 136.867Z" fill="white"/>
<path d="M230.046 64.4193C251.935 88.8882 265.288 121.215 265.288 156.664C265.288 198.405 246.821 235.815 217.614 261.176C205.267 294.757 173.021 318.724 135.189 318.724C104.077 318.724 76.7523 302.498 61.1747 278.032C59.4629 277.119 57.7938 276.126 56.1676 275.134C68.2573 290.504 80.668 307.495 88.5851 336.724C91.752 348.472 100.654 353.162 100.654 353.162H156.651H212.606C212.606 353.162 221.529 348.472 224.696 336.724C244.51 263.54 293.576 266.479 293.576 177.944C293.576 122.951 266.828 85.0987 230.046 64.4193" fill="#FFB600"/>
<path d="M211.566 374.734H97.0948C91.7516 374.734 87.4141 370.385 87.4141 365.047V360.604C87.4141 355.245 91.7516 350.917 97.0948 350.917H211.566C216.93 350.917 221.247 355.245 221.247 360.604V365.047C221.247 370.385 216.93 374.734 211.566 374.734Z" fill="#606060"/>
<path d="M211.742 399.72H97.2445C91.922 399.72 87.5844 395.373 87.5844 390.033V385.591C87.5844 380.232 91.922 375.904 97.2445 375.904H211.742C217.086 375.904 221.402 380.232 221.402 385.591V390.033C221.402 395.373 217.086 399.72 211.742 399.72Z" fill="#606060"/>
<path d="M201.239 426.435H107.475C100.917 426.435 94.8616 422.888 91.6978 417.147C87.6539 409.884 92.9131 400.941 101.21 400.941H207.504C215.801 400.941 221.06 409.884 217.017 417.147C213.853 422.888 207.818 426.435 201.239 426.435Z" fill="#606060"/>
<path d="M79.0922 150.45C92.1008 150.45 103.37 163.744 97.7859 177.295C95.8032 182.061 91.939 185.932 87.1847 187.916C73.5893 193.578 60.4189 182.195 60.4189 169.153L63.2714 164.94C66.2858 160.522 70.0893 156.672 74.4997 153.632L79.0922 150.45" fill="black"/>
<path d="M79.7697 155.19C88.0226 155.19 94.6816 162.021 94.4597 170.349C94.2377 178.023 87.8613 184.412 80.1936 184.622C71.9003 184.869 65.0799 178.195 65.0799 169.924C68.591 164.123 73.3935 159.232 79.1241 155.594L79.7697 155.19" fill="white"/>
<path d="M173.587 209.637C170.526 211.735 165.873 210.211 154.437 210.211C143.001 210.211 138.431 211.698 135.328 209.637C132.082 207.503 143.539 201.916 154.437 201.916C165.315 201.916 176.689 207.503 173.587 209.637Z" fill="#231F20"/>
<path d="M142.773 210.638C145.625 210.506 149.304 210.199 154.45 210.199C165.9 210.199 170.53 211.725 173.609 209.628C174.518 208.999 174.147 208.084 172.948 207.092C160.423 205.032 149.366 208.044 142.773 210.638" fill="#F22B2B"/>
<path d="M229.912 150.443C216.901 150.443 205.664 163.732 211.24 177.289C213.205 182.058 217.049 185.928 221.822 187.911C235.403 193.574 248.583 182.192 248.583 169.148L245.732 164.934C242.711 160.51 238.91 156.678 234.516 153.627L229.912 150.443" fill="black"/>
<path d="M229.227 155.185C221.001 155.185 214.336 162.011 214.547 170.325C214.758 178.008 221.17 184.397 228.805 184.606C237.136 184.856 243.928 178.181 243.928 169.905C240.427 164.107 235.618 159.208 229.881 155.584L229.227 155.185Z" fill="white"/>
<path d="M256.962 185.849C256.962 190.636 250.018 194.488 241.442 194.488C232.867 194.488 225.922 190.636 225.922 185.849C225.922 181.084 232.867 177.213 241.442 177.213C250.018 177.213 256.962 181.084 256.962 185.849Z" fill="#4EF0F5"/>
<path d="M241.538 193.221C234.79 193.221 229.333 190.418 229.333 186.985C229.333 183.533 234.875 183.343 241.644 183.343C248.371 183.343 253.765 183.533 253.765 186.985C253.765 190.418 248.307 193.221 241.538 193.221Z" fill="#31979A"/>
<path d="M254.389 185.728C253.606 187.596 249.966 187.863 246.241 186.279C242.559 184.717 240.189 181.915 240.993 180.045C241.797 178.158 245.437 177.91 249.141 179.473C252.823 181.037 255.193 183.839 254.389 185.728Z" fill="white"/>
<path d="M48.6198 185.863C48.6198 190.65 55.5901 194.503 64.1673 194.503C72.7445 194.503 79.6946 190.65 79.6946 185.863C79.6946 181.103 72.7445 177.22 64.1673 177.22C55.5901 177.22 48.6198 181.103 48.6198 185.863Z" fill="#4EF0F5"/>
<path d="M64.0609 193.216C57.2993 193.216 51.8218 190.412 51.8218 186.981C51.8218 183.524 57.199 183.343 63.9606 183.343C70.7222 183.343 76.28 183.524 76.28 186.981C76.28 190.412 70.8025 193.216 64.0609 193.216Z" fill="#31979A"/>
<path d="M51.2015 185.716C52.0015 187.579 55.6609 187.86 59.3406 186.277C63.0602 184.714 65.4201 181.91 64.6201 180.027C63.8202 178.144 60.1805 177.903 56.4809 179.466C52.7613 181.028 50.4016 183.833 51.2015 185.716Z" fill="white"/>
</svg>
